<?xml version="1.0" standalone="no"?>
<!DOCTYPE svg PUBLIC "-//W3C//DTD SVG 20010904//EN"
 "http://www.w3.org/TR/2001/REC-SVG-20010904/DTD/svg10.dtd">
<svg version="1.0" xmlns="http://www.w3.org/2000/svg"
 width="48.000000pt" height="48.000000pt" viewBox="0 0 48.000000 48.000000"
 preserveAspectRatio="xMidYMid meet">

<g transform="translate(0.000000,48.000000) scale(0.100000,-0.100000)"
fill="#000000" stroke="none">
<path d="M250 449 c64 -13 101 -53 108 -118 3 -37 0 -58 -12 -78 l-17 -28 20
24 c30 33 29 118 -1 156 -25 32 -75 55 -115 54 -20 -1 -16 -4 17 -10z"/>
<path d="M170 440 c-8 -5 -10 -10 -5 -10 6 0 17 5 25 10 8 5 11 10 5 10 -5 0
-17 -5 -25 -10z"/>
<path d="M126 408 c-19 -26 -21 -109 -5 -141 15 -29 69 -90 69 -79 0 5 -9 17
-21 28 -12 10 -27 31 -35 46 -19 36 -18 118 2 146 8 12 13 22 10 22 -3 0 -12
-10 -20 -22z"/>
<path d="M210 309 c-9 -5 -10 -9 -3 -9 6 0 13 -8 15 -17 3 -15 5 -14 10 4 7
27 -2 36 -22 22z"/>
<path d="M256 313 c-3 -3 -5 -29 -4 -57 l1 -51 4 45 c3 24 9 48 15 51 6 4 7 9
0 12 -5 4 -12 4 -16 0z"/>
<path d="M222 203 c-2 -25 -7 -33 -21 -33 -27 0 -30 -9 -22 -57 7 -39 44 -92
64 -93 4 0 19 12 32 26 24 26 31 62 26 122 -1 13 4 31 11 40 12 15 11 16 -4 3
-10 -7 -18 -19 -18 -26 0 -8 -6 -16 -12 -18 -8 -3 -6 -6 5 -6 18 -1 23 -16 8
-25 -4 -3 -6 -17 -3 -31 2 -15 0 -25 -7 -25 -7 0 -9 -5 -6 -10 3 -6 0 -13 -8
-15 -19 -8 -70 13 -62 25 3 5 2 10 -3 10 -12 0 -11 34 2 42 7 5 4 8 -6 8 -10
0 -18 5 -18 10 0 6 18 10 40 10 22 0 40 4 40 10 0 5 -6 7 -14 4 -11 -4 -16 4
-19 28 l-4 33 -1 -32z"/>
<path d="M228 133 c6 -2 18 -2 25 0 6 3 1 5 -13 5 -14 0 -19 -2 -12 -5z"/>
<path d="M232 81 c-11 -6 -10 -10 4 -15 9 -3 19 -4 22 -1 3 3 -1 5 -9 5 -11 0
-11 2 1 10 8 5 11 10 5 10 -5 0 -16 -4 -23 -9z"/>
</g>
</svg>
